<mxfile host="Electron" agent="Mozilla/5.0 (Windows NT 10.0; Win64; x64) AppleWebKit/537.36 (KHTML, like Gecko) draw.io/26.0.9 Chrome/128.0.6613.186 Electron/32.2.5 Safari/537.36" version="26.0.9" pages="3">
  <diagram id="WmRWL6GgP8z57dQalSn1" name="Tabular_data">
    <mxGraphModel dx="1146" dy="727" grid="1" gridSize="10" guides="1" tooltips="1" connect="1" arrows="1" fold="1" page="1" pageScale="1" pageWidth="827" pageHeight="1169" math="0" shadow="0">
      <root>
        <mxCell id="0" />
        <mxCell id="1" parent="0" />
        <mxCell id="S2ibK4OdWERbkGwbTr1l-3" value="Dataset 1" style="rounded=0;whiteSpace=wrap;html=1;fillColor=#dae8fc;strokeColor=#6c8ebf;verticalAlign=top;align=right;strokeWidth=2;" parent="1" vertex="1">
          <mxGeometry x="120" y="120" width="120" height="80" as="geometry" />
        </mxCell>
        <mxCell id="S2ibK4OdWERbkGwbTr1l-4" value="Dataset 2" style="rounded=0;whiteSpace=wrap;html=1;fillColor=#ffe6cc;strokeColor=#d79b00;align=right;verticalAlign=top;strokeWidth=2;" parent="1" vertex="1">
          <mxGeometry x="280" y="120" width="80" height="80" as="geometry" />
        </mxCell>
        <mxCell id="S2ibK4OdWERbkGwbTr1l-5" value="Dataset 3" style="rounded=0;whiteSpace=wrap;html=1;fillColor=#d5e8d4;strokeColor=#82b366;align=right;verticalAlign=top;strokeWidth=2;" parent="1" vertex="1">
          <mxGeometry x="400" y="120" width="200" height="80" as="geometry" />
        </mxCell>
        <mxCell id="S2ibK4OdWERbkGwbTr1l-6" value="" style="shape=flexArrow;endArrow=classic;html=1;rounded=0;strokeWidth=2;" parent="1" edge="1">
          <mxGeometry width="50" height="50" relative="1" as="geometry">
            <mxPoint x="80" y="90" as="sourcePoint" />
            <mxPoint x="80" y="150" as="targetPoint" />
          </mxGeometry>
        </mxCell>
        <mxCell id="S2ibK4OdWERbkGwbTr1l-7" value="" style="shape=flexArrow;endArrow=classic;html=1;rounded=0;strokeWidth=2;" parent="1" edge="1">
          <mxGeometry width="50" height="50" relative="1" as="geometry">
            <mxPoint x="90" y="80" as="sourcePoint" />
            <mxPoint x="160" y="80" as="targetPoint" />
          </mxGeometry>
        </mxCell>
        <mxCell id="S2ibK4OdWERbkGwbTr1l-9" value="Attribute" style="text;html=1;strokeColor=none;fillColor=none;align=center;verticalAlign=middle;whiteSpace=wrap;rounded=0;strokeWidth=2;" parent="1" vertex="1">
          <mxGeometry x="90" y="90" width="60" height="30" as="geometry" />
        </mxCell>
        <mxCell id="S2ibK4OdWERbkGwbTr1l-10" value="Data subject" style="text;html=1;strokeColor=none;fillColor=none;align=center;verticalAlign=middle;whiteSpace=wrap;rounded=0;rotation=90;strokeWidth=2;" parent="1" vertex="1">
          <mxGeometry y="120" width="100" height="30" as="geometry" />
        </mxCell>
        <mxCell id="S2ibK4OdWERbkGwbTr1l-11" value="Region 1" style="text;html=1;strokeColor=none;fillColor=none;align=center;verticalAlign=middle;whiteSpace=wrap;rounded=0;strokeWidth=2;" parent="1" vertex="1">
          <mxGeometry x="60" y="170" width="60" height="30" as="geometry" />
        </mxCell>
        <mxCell id="S2ibK4OdWERbkGwbTr1l-16" value="" style="rounded=0;whiteSpace=wrap;html=1;fillColor=#dae8fc;strokeColor=#6c8ebf;strokeWidth=2;" parent="1" vertex="1">
          <mxGeometry x="120" y="120" width="10" height="80" as="geometry" />
        </mxCell>
        <mxCell id="S2ibK4OdWERbkGwbTr1l-17" value="" style="rounded=0;whiteSpace=wrap;html=1;fillColor=#ffe6cc;strokeColor=#d79b00;strokeWidth=2;" parent="1" vertex="1">
          <mxGeometry x="280" y="120" width="10" height="80" as="geometry" />
        </mxCell>
        <mxCell id="S2ibK4OdWERbkGwbTr1l-18" value="" style="rounded=0;whiteSpace=wrap;html=1;fillColor=#d5e8d4;strokeColor=#82b366;strokeWidth=2;" parent="1" vertex="1">
          <mxGeometry x="400" y="120" width="10" height="80" as="geometry" />
        </mxCell>
        <mxCell id="S2ibK4OdWERbkGwbTr1l-20" value="Dataset 1" style="rounded=0;whiteSpace=wrap;html=1;fillColor=#dae8fc;strokeColor=#6c8ebf;verticalAlign=top;align=right;strokeWidth=2;" parent="1" vertex="1">
          <mxGeometry x="120" y="240" width="120" height="160" as="geometry" />
        </mxCell>
        <mxCell id="S2ibK4OdWERbkGwbTr1l-21" value="Dataset 2" style="rounded=0;whiteSpace=wrap;html=1;fillColor=#ffe6cc;strokeColor=#d79b00;align=right;verticalAlign=top;strokeWidth=2;" parent="1" vertex="1">
          <mxGeometry x="280" y="240" width="80" height="160" as="geometry" />
        </mxCell>
        <mxCell id="S2ibK4OdWERbkGwbTr1l-22" value="Dataset 3" style="rounded=0;whiteSpace=wrap;html=1;fillColor=#d5e8d4;strokeColor=#82b366;align=right;verticalAlign=top;strokeWidth=2;" parent="1" vertex="1">
          <mxGeometry x="400" y="240" width="200" height="160" as="geometry" />
        </mxCell>
        <mxCell id="S2ibK4OdWERbkGwbTr1l-23" value="Region 2" style="text;html=1;strokeColor=none;fillColor=none;align=center;verticalAlign=middle;whiteSpace=wrap;rounded=0;strokeWidth=2;" parent="1" vertex="1">
          <mxGeometry x="60" y="300" width="60" height="30" as="geometry" />
        </mxCell>
        <mxCell id="S2ibK4OdWERbkGwbTr1l-24" value="" style="rounded=0;whiteSpace=wrap;html=1;fillColor=#dae8fc;strokeColor=#6c8ebf;strokeWidth=2;" parent="1" vertex="1">
          <mxGeometry x="120" y="240" width="10" height="160" as="geometry" />
        </mxCell>
        <mxCell id="S2ibK4OdWERbkGwbTr1l-25" value="" style="rounded=0;whiteSpace=wrap;html=1;fillColor=#ffe6cc;strokeColor=#d79b00;strokeWidth=2;" parent="1" vertex="1">
          <mxGeometry x="280" y="240" width="10" height="160" as="geometry" />
        </mxCell>
        <mxCell id="S2ibK4OdWERbkGwbTr1l-26" value="" style="rounded=0;whiteSpace=wrap;html=1;fillColor=#d5e8d4;strokeColor=#82b366;strokeWidth=2;" parent="1" vertex="1">
          <mxGeometry x="400" y="240" width="10" height="160" as="geometry" />
        </mxCell>
        <mxCell id="S2ibK4OdWERbkGwbTr1l-27" value="Dataset 1" style="rounded=0;whiteSpace=wrap;html=1;fillColor=#dae8fc;strokeColor=#6c8ebf;verticalAlign=top;align=right;strokeWidth=2;" parent="1" vertex="1">
          <mxGeometry x="120" y="440" width="120" height="80" as="geometry" />
        </mxCell>
        <mxCell id="S2ibK4OdWERbkGwbTr1l-28" value="Dataset 2" style="rounded=0;whiteSpace=wrap;html=1;fillColor=#ffe6cc;strokeColor=#d79b00;align=right;verticalAlign=top;strokeWidth=2;" parent="1" vertex="1">
          <mxGeometry x="280" y="440" width="80" height="80" as="geometry" />
        </mxCell>
        <mxCell id="S2ibK4OdWERbkGwbTr1l-29" value="Dataset 3" style="rounded=0;whiteSpace=wrap;html=1;fillColor=#d5e8d4;strokeColor=#82b366;align=right;verticalAlign=top;strokeWidth=2;" parent="1" vertex="1">
          <mxGeometry x="400" y="440" width="200" height="80" as="geometry" />
        </mxCell>
        <mxCell id="S2ibK4OdWERbkGwbTr1l-30" value="Region 3" style="text;html=1;strokeColor=none;fillColor=none;align=center;verticalAlign=middle;whiteSpace=wrap;rounded=0;strokeWidth=2;" parent="1" vertex="1">
          <mxGeometry x="60" y="470" width="60" height="30" as="geometry" />
        </mxCell>
        <mxCell id="S2ibK4OdWERbkGwbTr1l-31" value="" style="rounded=0;whiteSpace=wrap;html=1;fillColor=#dae8fc;strokeColor=#6c8ebf;strokeWidth=2;" parent="1" vertex="1">
          <mxGeometry x="120" y="440" width="10" height="80" as="geometry" />
        </mxCell>
        <mxCell id="S2ibK4OdWERbkGwbTr1l-32" value="" style="rounded=0;whiteSpace=wrap;html=1;fillColor=#ffe6cc;strokeColor=#d79b00;strokeWidth=2;" parent="1" vertex="1">
          <mxGeometry x="280" y="440" width="10" height="80" as="geometry" />
        </mxCell>
        <mxCell id="S2ibK4OdWERbkGwbTr1l-33" value="" style="rounded=0;whiteSpace=wrap;html=1;fillColor=#d5e8d4;strokeColor=#82b366;strokeWidth=2;" parent="1" vertex="1">
          <mxGeometry x="400" y="440" width="10" height="80" as="geometry" />
        </mxCell>
        <mxCell id="S2ibK4OdWERbkGwbTr1l-39" value="Master index spine held &quot;elsewhere&quot;" style="text;html=1;strokeColor=none;fillColor=none;align=left;verticalAlign=middle;whiteSpace=wrap;rounded=0;strokeWidth=2;" parent="1" vertex="1">
          <mxGeometry x="710" y="110" width="80" height="30" as="geometry" />
        </mxCell>
        <mxCell id="S2ibK4OdWERbkGwbTr1l-44" value="" style="group;strokeWidth=2;" parent="1" vertex="1" connectable="0">
          <mxGeometry x="720" y="160" width="40" height="320" as="geometry" />
        </mxCell>
        <mxCell id="S2ibK4OdWERbkGwbTr1l-34" value="" style="rounded=0;whiteSpace=wrap;html=1;fillColor=#dae8fc;strokeColor=#6c8ebf;container=0;strokeWidth=2;" parent="S2ibK4OdWERbkGwbTr1l-44" vertex="1">
          <mxGeometry x="10" width="10" height="320" as="geometry" />
        </mxCell>
        <mxCell id="S2ibK4OdWERbkGwbTr1l-35" value="" style="rounded=0;whiteSpace=wrap;html=1;fillColor=#ffe6cc;strokeColor=#d79b00;container=0;strokeWidth=2;" parent="S2ibK4OdWERbkGwbTr1l-44" vertex="1">
          <mxGeometry x="20" width="10" height="320" as="geometry" />
        </mxCell>
        <mxCell id="S2ibK4OdWERbkGwbTr1l-36" value="" style="rounded=0;whiteSpace=wrap;html=1;fillColor=#d5e8d4;strokeColor=#82b366;container=0;strokeWidth=2;" parent="S2ibK4OdWERbkGwbTr1l-44" vertex="1">
          <mxGeometry x="30" width="10" height="320" as="geometry" />
        </mxCell>
        <mxCell id="S2ibK4OdWERbkGwbTr1l-37" value="" style="rounded=0;whiteSpace=wrap;html=1;fillColor=#f8cecc;strokeColor=#b85450;container=0;strokeWidth=2;" parent="S2ibK4OdWERbkGwbTr1l-44" vertex="1">
          <mxGeometry width="10" height="320" as="geometry" />
        </mxCell>
        <mxCell id="S2ibK4OdWERbkGwbTr1l-41" value="" style="rounded=0;whiteSpace=wrap;html=1;fillColor=none;container=0;strokeWidth=2;" parent="S2ibK4OdWERbkGwbTr1l-44" vertex="1">
          <mxGeometry width="40" height="80" as="geometry" />
        </mxCell>
        <mxCell id="S2ibK4OdWERbkGwbTr1l-42" value="" style="rounded=0;whiteSpace=wrap;html=1;fillColor=none;container=0;strokeWidth=2;" parent="S2ibK4OdWERbkGwbTr1l-44" vertex="1">
          <mxGeometry y="80" width="40" height="160" as="geometry" />
        </mxCell>
        <mxCell id="S2ibK4OdWERbkGwbTr1l-43" value="" style="rounded=0;whiteSpace=wrap;html=1;fillColor=none;container=0;strokeWidth=2;" parent="S2ibK4OdWERbkGwbTr1l-44" vertex="1">
          <mxGeometry y="240" width="40" height="80" as="geometry" />
        </mxCell>
        <mxCell id="S2ibK4OdWERbkGwbTr1l-45" value="&lt;font style=&quot;font-size: 14px;&quot;&gt;+&lt;/font&gt;" style="text;html=1;strokeColor=none;fillColor=none;align=center;verticalAlign=middle;whiteSpace=wrap;rounded=0;strokeWidth=2;" parent="1" vertex="1">
          <mxGeometry x="150" y="200" width="60" height="30" as="geometry" />
        </mxCell>
        <mxCell id="S2ibK4OdWERbkGwbTr1l-46" value="&lt;font style=&quot;font-size: 14px;&quot;&gt;+&lt;/font&gt;" style="text;html=1;strokeColor=none;fillColor=none;align=center;verticalAlign=middle;whiteSpace=wrap;rounded=0;strokeWidth=2;" parent="1" vertex="1">
          <mxGeometry x="290" y="200" width="60" height="30" as="geometry" />
        </mxCell>
        <mxCell id="S2ibK4OdWERbkGwbTr1l-47" value="&lt;font style=&quot;font-size: 14px;&quot;&gt;+&lt;/font&gt;" style="text;html=1;strokeColor=none;fillColor=none;align=center;verticalAlign=middle;whiteSpace=wrap;rounded=0;strokeWidth=2;" parent="1" vertex="1">
          <mxGeometry x="470" y="200" width="60" height="30" as="geometry" />
        </mxCell>
        <mxCell id="S2ibK4OdWERbkGwbTr1l-48" value="&lt;font style=&quot;font-size: 14px;&quot;&gt;+&lt;/font&gt;" style="text;html=1;strokeColor=none;fillColor=none;align=center;verticalAlign=middle;whiteSpace=wrap;rounded=0;strokeWidth=2;" parent="1" vertex="1">
          <mxGeometry x="150" y="400" width="60" height="30" as="geometry" />
        </mxCell>
        <mxCell id="S2ibK4OdWERbkGwbTr1l-49" value="&lt;font style=&quot;font-size: 14px;&quot;&gt;+&lt;/font&gt;" style="text;html=1;strokeColor=none;fillColor=none;align=center;verticalAlign=middle;whiteSpace=wrap;rounded=0;strokeWidth=2;" parent="1" vertex="1">
          <mxGeometry x="290" y="400" width="60" height="30" as="geometry" />
        </mxCell>
        <mxCell id="S2ibK4OdWERbkGwbTr1l-50" value="&lt;font style=&quot;font-size: 14px;&quot;&gt;+&lt;/font&gt;" style="text;html=1;strokeColor=none;fillColor=none;align=center;verticalAlign=middle;whiteSpace=wrap;rounded=0;strokeWidth=2;" parent="1" vertex="1">
          <mxGeometry x="470" y="400" width="60" height="30" as="geometry" />
        </mxCell>
        <mxCell id="S2ibK4OdWERbkGwbTr1l-51" value="&amp;gt;&amp;lt;" style="text;html=1;strokeColor=none;fillColor=none;align=center;verticalAlign=middle;whiteSpace=wrap;rounded=0;fontSize=14;strokeWidth=2;" parent="1" vertex="1">
          <mxGeometry x="230" y="145" width="60" height="30" as="geometry" />
        </mxCell>
        <mxCell id="S2ibK4OdWERbkGwbTr1l-52" value="&amp;gt;&amp;lt;" style="text;html=1;strokeColor=none;fillColor=none;align=center;verticalAlign=middle;whiteSpace=wrap;rounded=0;fontSize=14;strokeWidth=2;" parent="1" vertex="1">
          <mxGeometry x="230" y="305" width="60" height="30" as="geometry" />
        </mxCell>
        <mxCell id="S2ibK4OdWERbkGwbTr1l-53" value="&amp;gt;&amp;lt;" style="text;html=1;strokeColor=none;fillColor=none;align=center;verticalAlign=middle;whiteSpace=wrap;rounded=0;fontSize=14;strokeWidth=2;" parent="1" vertex="1">
          <mxGeometry x="230" y="470" width="60" height="30" as="geometry" />
        </mxCell>
        <mxCell id="S2ibK4OdWERbkGwbTr1l-55" value="&amp;gt;&amp;lt;" style="text;html=1;strokeColor=none;fillColor=none;align=center;verticalAlign=middle;whiteSpace=wrap;rounded=0;fontSize=14;strokeWidth=2;" parent="1" vertex="1">
          <mxGeometry x="350" y="145" width="60" height="30" as="geometry" />
        </mxCell>
        <mxCell id="S2ibK4OdWERbkGwbTr1l-56" value="&amp;gt;&amp;lt;" style="text;html=1;strokeColor=none;fillColor=none;align=center;verticalAlign=middle;whiteSpace=wrap;rounded=0;fontSize=14;strokeWidth=2;" parent="1" vertex="1">
          <mxGeometry x="350" y="305" width="60" height="30" as="geometry" />
        </mxCell>
        <mxCell id="S2ibK4OdWERbkGwbTr1l-57" value="&amp;gt;&amp;lt;" style="text;html=1;strokeColor=none;fillColor=none;align=center;verticalAlign=middle;whiteSpace=wrap;rounded=0;fontSize=14;strokeWidth=2;" parent="1" vertex="1">
          <mxGeometry x="350" y="470" width="60" height="30" as="geometry" />
        </mxCell>
        <object label="Query patterns" id="S2ibK4OdWERbkGwbTr1l-58">
          <mxCell parent="0" />
        </object>
        <mxCell id="S2ibK4OdWERbkGwbTr1l-59" value="Q1" style="rounded=1;whiteSpace=wrap;html=1;fontSize=14;fillColor=none;strokeColor=#FF3333;verticalAlign=bottom;align=left;fontColor=#FF3333;fontStyle=1;strokeWidth=2;" parent="S2ibK4OdWERbkGwbTr1l-58" vertex="1">
          <mxGeometry x="160" y="120" width="40" height="400" as="geometry" />
        </mxCell>
        <mxCell id="S2ibK4OdWERbkGwbTr1l-60" value="Q2" style="rounded=1;whiteSpace=wrap;html=1;strokeColor=#FF3333;fontSize=14;fillColor=none;align=right;verticalAlign=bottom;fontColor=#FF3333;fontStyle=1;strokeWidth=2;" parent="S2ibK4OdWERbkGwbTr1l-58" vertex="1">
          <mxGeometry x="120" y="140" width="480" height="40" as="geometry" />
        </mxCell>
        <mxCell id="S2ibK4OdWERbkGwbTr1l-61" value="&lt;b&gt;Q3&lt;/b&gt;" style="rounded=1;whiteSpace=wrap;html=1;strokeColor=#FF3333;fontSize=14;fontColor=#FF3333;fillColor=none;strokeWidth=2;" parent="S2ibK4OdWERbkGwbTr1l-58" vertex="1">
          <mxGeometry x="170" y="150" width="180" height="200" as="geometry" />
        </mxCell>
        <mxCell id="S2ibK4OdWERbkGwbTr1l-62" value="&lt;b&gt;Q0&lt;/b&gt;" style="rounded=1;whiteSpace=wrap;html=1;strokeColor=#FF3333;fontSize=14;fontColor=#FF3333;fillColor=none;strokeWidth=2;" parent="S2ibK4OdWERbkGwbTr1l-58" vertex="1">
          <mxGeometry x="300" y="470" width="50" height="40" as="geometry" />
        </mxCell>
      </root>
    </mxGraphModel>
  </diagram>
  <diagram id="6qDM4_xPMRutl9hCka13" name="Vertical">
    <mxGraphModel dx="1418" dy="828" grid="1" gridSize="10" guides="1" tooltips="1" connect="1" arrows="1" fold="1" page="1" pageScale="1" pageWidth="827" pageHeight="1169" math="0" shadow="0">
      <root>
        <mxCell id="0" />
        <mxCell id="1" parent="0" />
        <mxCell id="0nm5Jq3DyVKoGi8zZOcm-10" style="edgeStyle=orthogonalEdgeStyle;rounded=0;orthogonalLoop=1;jettySize=auto;html=1;entryX=0;entryY=0.25;entryDx=0;entryDy=0;" parent="1" source="0nm5Jq3DyVKoGi8zZOcm-1" target="0nm5Jq3DyVKoGi8zZOcm-2" edge="1">
          <mxGeometry relative="1" as="geometry" />
        </mxCell>
        <mxCell id="0nm5Jq3DyVKoGi8zZOcm-1" value="R" style="shape=umlActor;verticalLabelPosition=bottom;verticalAlign=top;html=1;outlineConnect=0;" parent="1" vertex="1">
          <mxGeometry x="40" y="120" width="30" height="60" as="geometry" />
        </mxCell>
        <mxCell id="0nm5Jq3DyVKoGi8zZOcm-12" style="edgeStyle=orthogonalEdgeStyle;rounded=1;orthogonalLoop=1;jettySize=auto;html=1;entryX=0;entryY=0.25;entryDx=0;entryDy=0;exitX=1;exitY=0.25;exitDx=0;exitDy=0;" parent="1" source="0nm5Jq3DyVKoGi8zZOcm-2" target="0nm5Jq3DyVKoGi8zZOcm-4" edge="1">
          <mxGeometry relative="1" as="geometry">
            <Array as="points">
              <mxPoint x="280" y="150" />
              <mxPoint x="280" y="65" />
            </Array>
          </mxGeometry>
        </mxCell>
        <mxCell id="0nm5Jq3DyVKoGi8zZOcm-2" value="TRE (project X, {Q})" style="rounded=0;whiteSpace=wrap;html=1;verticalAlign=top;align=center;" parent="1" vertex="1">
          <mxGeometry x="120" y="120" width="120" height="120" as="geometry" />
        </mxCell>
        <mxCell id="0nm5Jq3DyVKoGi8zZOcm-17" style="edgeStyle=orthogonalEdgeStyle;rounded=1;orthogonalLoop=1;jettySize=auto;html=1;entryX=1;entryY=0.5;entryDx=0;entryDy=0;" parent="1" source="0nm5Jq3DyVKoGi8zZOcm-3" target="0nm5Jq3DyVKoGi8zZOcm-2" edge="1">
          <mxGeometry relative="1" as="geometry">
            <Array as="points">
              <mxPoint x="320" y="260" />
              <mxPoint x="320" y="180" />
            </Array>
          </mxGeometry>
        </mxCell>
        <mxCell id="0nm5Jq3DyVKoGi8zZOcm-3" value="DS&lt;sub&gt;2&lt;/sub&gt;" style="rounded=0;whiteSpace=wrap;html=1;verticalAlign=top;align=center;" parent="1" vertex="1">
          <mxGeometry x="360" y="200" width="100" height="100" as="geometry" />
        </mxCell>
        <mxCell id="0nm5Jq3DyVKoGi8zZOcm-16" style="edgeStyle=orthogonalEdgeStyle;rounded=1;orthogonalLoop=1;jettySize=auto;html=1;entryX=1;entryY=0.5;entryDx=0;entryDy=0;" parent="1" source="0nm5Jq3DyVKoGi8zZOcm-4" target="0nm5Jq3DyVKoGi8zZOcm-2" edge="1">
          <mxGeometry relative="1" as="geometry">
            <Array as="points">
              <mxPoint x="320" y="100" />
              <mxPoint x="320" y="180" />
            </Array>
          </mxGeometry>
        </mxCell>
        <mxCell id="0nm5Jq3DyVKoGi8zZOcm-4" value="DS&lt;sub&gt;1&lt;/sub&gt;" style="rounded=0;whiteSpace=wrap;html=1;verticalAlign=top;align=center;" parent="1" vertex="1">
          <mxGeometry x="360" y="40" width="100" height="100" as="geometry" />
        </mxCell>
        <mxCell id="0nm5Jq3DyVKoGi8zZOcm-5" value="G" style="shape=umlActor;verticalLabelPosition=bottom;verticalAlign=top;html=1;outlineConnect=0;" parent="1" vertex="1">
          <mxGeometry x="165" y="20" width="30" height="60" as="geometry" />
        </mxCell>
        <mxCell id="0nm5Jq3DyVKoGi8zZOcm-6" value="D&lt;sub&gt;1&lt;/sub&gt;" style="shape=cylinder3;whiteSpace=wrap;html=1;boundedLbl=1;backgroundOutline=1;size=7;" parent="1" vertex="1">
          <mxGeometry x="389" y="80" width="50" height="50" as="geometry" />
        </mxCell>
        <mxCell id="0nm5Jq3DyVKoGi8zZOcm-7" value="D&lt;sub&gt;2&lt;/sub&gt;" style="shape=cylinder3;whiteSpace=wrap;html=1;boundedLbl=1;backgroundOutline=1;size=7;" parent="1" vertex="1">
          <mxGeometry x="389" y="240" width="50" height="50" as="geometry" />
        </mxCell>
        <mxCell id="0nm5Jq3DyVKoGi8zZOcm-11" value="Q" style="text;html=1;strokeColor=none;fillColor=none;align=center;verticalAlign=middle;whiteSpace=wrap;rounded=0;" parent="1" vertex="1">
          <mxGeometry x="70" y="120" width="60" height="30" as="geometry" />
        </mxCell>
        <mxCell id="0nm5Jq3DyVKoGi8zZOcm-13" value="(X, Q, R)" style="text;html=1;strokeColor=none;fillColor=none;align=center;verticalAlign=middle;whiteSpace=wrap;rounded=0;" parent="1" vertex="1">
          <mxGeometry x="280" y="40" width="60" height="30" as="geometry" />
        </mxCell>
        <mxCell id="0nm5Jq3DyVKoGi8zZOcm-14" style="edgeStyle=orthogonalEdgeStyle;rounded=1;orthogonalLoop=1;jettySize=auto;html=1;entryX=-0.008;entryY=0.817;entryDx=0;entryDy=0;exitX=1;exitY=0.75;exitDx=0;exitDy=0;entryPerimeter=0;" parent="1" source="0nm5Jq3DyVKoGi8zZOcm-2" target="0nm5Jq3DyVKoGi8zZOcm-3" edge="1">
          <mxGeometry relative="1" as="geometry">
            <mxPoint x="250" y="160" as="sourcePoint" />
            <mxPoint x="370" y="80" as="targetPoint" />
            <Array as="points">
              <mxPoint x="280" y="210" />
              <mxPoint x="280" y="282" />
            </Array>
          </mxGeometry>
        </mxCell>
        <mxCell id="0nm5Jq3DyVKoGi8zZOcm-15" value="(X, Q, R)" style="text;html=1;strokeColor=none;fillColor=none;align=center;verticalAlign=middle;whiteSpace=wrap;rounded=0;" parent="1" vertex="1">
          <mxGeometry x="280" y="290" width="60" height="30" as="geometry" />
        </mxCell>
        <mxCell id="0nm5Jq3DyVKoGi8zZOcm-18" value="T&lt;sub&gt;1&lt;/sub&gt;&lt;sup&gt;Q&lt;/sup&gt;" style="text;html=1;strokeColor=none;fillColor=none;align=center;verticalAlign=middle;whiteSpace=wrap;rounded=0;" parent="1" vertex="1">
          <mxGeometry x="310" y="100" width="60" height="30" as="geometry" />
        </mxCell>
        <mxCell id="0nm5Jq3DyVKoGi8zZOcm-19" value="T&lt;sub&gt;2&lt;/sub&gt;&lt;sup&gt;Q&lt;/sup&gt;" style="text;html=1;strokeColor=none;fillColor=none;align=center;verticalAlign=middle;whiteSpace=wrap;rounded=0;" parent="1" vertex="1">
          <mxGeometry x="310" y="230" width="60" height="30" as="geometry" />
        </mxCell>
        <mxCell id="0nm5Jq3DyVKoGi8zZOcm-20" value="T&lt;sup&gt;Q&lt;/sup&gt;=T&lt;sub&gt;1&lt;/sub&gt;&lt;sup&gt;Q&lt;/sup&gt;+T&lt;sub&gt;2&lt;/sub&gt;&lt;sup&gt;Q&lt;/sup&gt;" style="shape=cylinder3;whiteSpace=wrap;html=1;boundedLbl=1;backgroundOutline=1;size=8;" parent="1" vertex="1">
          <mxGeometry x="140" y="180" width="80" height="50" as="geometry" />
        </mxCell>
        <mxCell id="uqipR6Faf925YPKUtzu7-6" style="edgeStyle=orthogonalEdgeStyle;rounded=1;orthogonalLoop=1;jettySize=auto;html=1;dashed=1;strokeColor=#000000;fontSize=14;fontColor=#999999;startArrow=none;startFill=0;endArrow=none;endFill=0;" parent="1" source="uqipR6Faf925YPKUtzu7-1" target="0nm5Jq3DyVKoGi8zZOcm-6" edge="1">
          <mxGeometry relative="1" as="geometry" />
        </mxCell>
        <mxCell id="uqipR6Faf925YPKUtzu7-1" value="DC&lt;sub&gt;1&lt;/sub&gt;" style="shape=umlActor;verticalLabelPosition=bottom;verticalAlign=top;html=1;outlineConnect=0;" parent="1" vertex="1">
          <mxGeometry x="490" y="40" width="30" height="60" as="geometry" />
        </mxCell>
        <mxCell id="uqipR6Faf925YPKUtzu7-7" style="edgeStyle=orthogonalEdgeStyle;rounded=1;orthogonalLoop=1;jettySize=auto;html=1;entryX=1;entryY=0.5;entryDx=0;entryDy=0;entryPerimeter=0;dashed=1;strokeColor=#000000;fontSize=14;fontColor=#999999;startArrow=none;startFill=0;endArrow=none;endFill=0;" parent="1" source="uqipR6Faf925YPKUtzu7-2" target="0nm5Jq3DyVKoGi8zZOcm-7" edge="1">
          <mxGeometry relative="1" as="geometry" />
        </mxCell>
        <mxCell id="uqipR6Faf925YPKUtzu7-2" value="DC&lt;sub&gt;2&lt;/sub&gt;" style="shape=umlActor;verticalLabelPosition=bottom;verticalAlign=top;html=1;outlineConnect=0;" parent="1" vertex="1">
          <mxGeometry x="490" y="200" width="30" height="60" as="geometry" />
        </mxCell>
        <mxCell id="uqipR6Faf925YPKUtzu7-4" style="edgeStyle=orthogonalEdgeStyle;rounded=1;orthogonalLoop=1;jettySize=auto;html=1;entryX=0.5;entryY=0.5;entryDx=0;entryDy=0;entryPerimeter=0;strokeColor=#000000;fontSize=14;fontColor=#999999;startArrow=none;startFill=0;endArrow=none;endFill=0;exitX=0.5;exitY=0;exitDx=0;exitDy=0;exitPerimeter=0;dashed=1;" parent="1" source="uqipR6Faf925YPKUtzu7-3" target="uqipR6Faf925YPKUtzu7-1" edge="1">
          <mxGeometry relative="1" as="geometry">
            <Array as="points">
              <mxPoint x="575" y="70" />
            </Array>
          </mxGeometry>
        </mxCell>
        <mxCell id="uqipR6Faf925YPKUtzu7-3" value="P" style="shape=umlActor;verticalLabelPosition=bottom;verticalAlign=top;html=1;outlineConnect=0;" parent="1" vertex="1">
          <mxGeometry x="560" y="120" width="30" height="60" as="geometry" />
        </mxCell>
        <mxCell id="uqipR6Faf925YPKUtzu7-5" style="edgeStyle=orthogonalEdgeStyle;rounded=1;orthogonalLoop=1;jettySize=auto;html=1;entryX=0.5;entryY=0.5;entryDx=0;entryDy=0;entryPerimeter=0;strokeColor=#000000;fontSize=14;fontColor=#999999;startArrow=none;startFill=0;endArrow=none;endFill=0;exitX=0.456;exitY=0.722;exitDx=0;exitDy=0;exitPerimeter=0;dashed=1;" parent="1" source="uqipR6Faf925YPKUtzu7-3" target="uqipR6Faf925YPKUtzu7-2" edge="1">
          <mxGeometry relative="1" as="geometry">
            <mxPoint x="585" y="130" as="sourcePoint" />
            <mxPoint x="515" y="80" as="targetPoint" />
            <Array as="points">
              <mxPoint x="574" y="230" />
            </Array>
          </mxGeometry>
        </mxCell>
      </root>
    </mxGraphModel>
  </diagram>
  <diagram id="P43TUJEcy3c3QqGstJNd" name="Horizontal">
    <mxGraphModel dx="1418" dy="828" grid="1" gridSize="10" guides="1" tooltips="1" connect="1" arrows="1" fold="1" page="1" pageScale="1" pageWidth="827" pageHeight="1169" math="0" shadow="0">
      <root>
        <mxCell id="0" />
        <mxCell id="1" parent="0" />
        <mxCell id="_npgno4ClMqblgrAYMIO-6" style="edgeStyle=orthogonalEdgeStyle;rounded=1;orthogonalLoop=1;jettySize=auto;html=1;entryX=1;entryY=1;entryDx=0;entryDy=0;fontSize=14;endArrow=classic;endFill=1;exitX=1.025;exitY=0.675;exitDx=0;exitDy=0;exitPerimeter=0;startArrow=none;startFill=0;strokeColor=#808080;fontColor=#999999;" parent="1" source="9LRw7P8XOz3l5FExUCqB-1" target="_npgno4ClMqblgrAYMIO-7" edge="1">
          <mxGeometry relative="1" as="geometry">
            <Array as="points">
              <mxPoint x="410" y="211" />
              <mxPoint x="410" y="263" />
            </Array>
          </mxGeometry>
        </mxCell>
        <mxCell id="_npgno4ClMqblgrAYMIO-9" style="edgeStyle=orthogonalEdgeStyle;rounded=1;orthogonalLoop=1;jettySize=auto;html=1;entryX=0;entryY=0.25;entryDx=0;entryDy=0;fontSize=14;startArrow=none;startFill=0;endArrow=classic;endFill=1;exitX=0.75;exitY=1;exitDx=0;exitDy=0;" parent="1" source="9LRw7P8XOz3l5FExUCqB-1" target="_npgno4ClMqblgrAYMIO-5" edge="1">
          <mxGeometry relative="1" as="geometry" />
        </mxCell>
        <mxCell id="9LRw7P8XOz3l5FExUCqB-1" value="TRE&lt;br&gt;(project context X)" style="whiteSpace=wrap;html=1;fontSize=14;imageAspect=0;resizeWidth=1;resizeHeight=1;align=center;verticalAlign=top;" parent="1" vertex="1">
          <mxGeometry x="150" y="130" width="120" height="120" as="geometry" />
        </mxCell>
        <mxCell id="9LRw7P8XOz3l5FExUCqB-2" value="" style="rounded=0;whiteSpace=wrap;html=1;fontSize=14;" parent="1" vertex="1">
          <mxGeometry x="120" y="130" width="30" height="120" as="geometry" />
        </mxCell>
        <mxCell id="9LRw7P8XOz3l5FExUCqB-5" style="edgeStyle=orthogonalEdgeStyle;rounded=1;orthogonalLoop=1;jettySize=auto;html=1;entryX=0;entryY=0.25;entryDx=0;entryDy=0;fontSize=14;endArrow=none;endFill=0;" parent="1" source="9LRw7P8XOz3l5FExUCqB-3" target="9LRw7P8XOz3l5FExUCqB-2" edge="1">
          <mxGeometry relative="1" as="geometry" />
        </mxCell>
        <mxCell id="9LRw7P8XOz3l5FExUCqB-3" value="R" style="shape=umlActor;verticalLabelPosition=bottom;verticalAlign=top;html=1;outlineConnect=0;fontSize=14;" parent="1" vertex="1">
          <mxGeometry x="40" y="130" width="30" height="60" as="geometry" />
        </mxCell>
        <mxCell id="9LRw7P8XOz3l5FExUCqB-6" style="edgeStyle=orthogonalEdgeStyle;rounded=1;orthogonalLoop=1;jettySize=auto;html=1;entryX=0.75;entryY=0;entryDx=0;entryDy=0;fontSize=14;endArrow=none;endFill=0;" parent="1" source="9LRw7P8XOz3l5FExUCqB-4" target="9LRw7P8XOz3l5FExUCqB-1" edge="1">
          <mxGeometry relative="1" as="geometry" />
        </mxCell>
        <mxCell id="9LRw7P8XOz3l5FExUCqB-4" value="G" style="shape=umlActor;verticalLabelPosition=bottom;verticalAlign=top;html=1;outlineConnect=0;fontSize=14;" parent="1" vertex="1">
          <mxGeometry x="320" y="40" width="30" height="60" as="geometry" />
        </mxCell>
        <mxCell id="_npgno4ClMqblgrAYMIO-10" style="edgeStyle=orthogonalEdgeStyle;rounded=1;orthogonalLoop=1;jettySize=auto;html=1;entryX=1;entryY=0.75;entryDx=0;entryDy=0;fontSize=14;startArrow=none;startFill=0;endArrow=classic;endFill=1;exitX=0;exitY=0.75;exitDx=0;exitDy=0;strokeColor=#808080;fontColor=#999999;" parent="1" source="_npgno4ClMqblgrAYMIO-1" target="9LRw7P8XOz3l5FExUCqB-1" edge="1">
          <mxGeometry relative="1" as="geometry">
            <Array as="points">
              <mxPoint x="355" y="285" />
              <mxPoint x="355" y="220" />
            </Array>
          </mxGeometry>
        </mxCell>
        <mxCell id="_npgno4ClMqblgrAYMIO-13" style="edgeStyle=orthogonalEdgeStyle;rounded=1;orthogonalLoop=1;jettySize=auto;html=1;entryX=1;entryY=0.408;entryDx=0;entryDy=0;entryPerimeter=0;fontSize=14;startArrow=none;startFill=0;endArrow=classic;endFill=1;exitX=0.75;exitY=1;exitDx=0;exitDy=0;" parent="1" source="_npgno4ClMqblgrAYMIO-1" target="_npgno4ClMqblgrAYMIO-5" edge="1">
          <mxGeometry relative="1" as="geometry" />
        </mxCell>
        <mxCell id="_npgno4ClMqblgrAYMIO-24" style="edgeStyle=orthogonalEdgeStyle;rounded=1;orthogonalLoop=1;jettySize=auto;html=1;entryX=1;entryY=0.25;entryDx=0;entryDy=0;strokeColor=#000000;fontSize=14;fontColor=#999999;startArrow=none;startFill=0;endArrow=classic;endFill=1;exitX=0.25;exitY=0;exitDx=0;exitDy=0;" parent="1" source="_npgno4ClMqblgrAYMIO-1" target="9LRw7P8XOz3l5FExUCqB-1" edge="1">
          <mxGeometry relative="1" as="geometry" />
        </mxCell>
        <mxCell id="_npgno4ClMqblgrAYMIO-1" value="DP&lt;sub&gt;1&lt;/sub&gt;" style="rounded=0;whiteSpace=wrap;html=1;verticalAlign=top;align=center;" parent="1" vertex="1">
          <mxGeometry x="460" y="210" width="100" height="100" as="geometry" />
        </mxCell>
        <mxCell id="W2bgth2EgCwQeWnGfcht-11" style="edgeStyle=orthogonalEdgeStyle;rounded=1;orthogonalLoop=1;jettySize=auto;html=1;dashed=1;strokeColor=#000000;fontSize=14;fontColor=#999999;startArrow=none;startFill=0;endArrow=none;endFill=0;entryX=0.5;entryY=0.5;entryDx=0;entryDy=0;entryPerimeter=0;" parent="1" source="_npgno4ClMqblgrAYMIO-2" target="W2bgth2EgCwQeWnGfcht-2" edge="1">
          <mxGeometry relative="1" as="geometry">
            <Array as="points">
              <mxPoint x="550" y="275" />
              <mxPoint x="550" y="250" />
            </Array>
          </mxGeometry>
        </mxCell>
        <mxCell id="_npgno4ClMqblgrAYMIO-2" value="D&lt;sub&gt;1&lt;/sub&gt;" style="shape=cylinder3;whiteSpace=wrap;html=1;boundedLbl=1;backgroundOutline=1;size=7;" parent="1" vertex="1">
          <mxGeometry x="489" y="250" width="50" height="50" as="geometry" />
        </mxCell>
        <mxCell id="_npgno4ClMqblgrAYMIO-15" style="edgeStyle=orthogonalEdgeStyle;rounded=1;orthogonalLoop=1;jettySize=auto;html=1;entryX=1;entryY=0.75;entryDx=0;entryDy=0;fontSize=14;startArrow=none;startFill=0;endArrow=classic;endFill=1;exitX=0.75;exitY=1;exitDx=0;exitDy=0;" parent="1" source="_npgno4ClMqblgrAYMIO-3" target="_npgno4ClMqblgrAYMIO-5" edge="1">
          <mxGeometry relative="1" as="geometry" />
        </mxCell>
        <mxCell id="_npgno4ClMqblgrAYMIO-25" style="edgeStyle=orthogonalEdgeStyle;rounded=1;orthogonalLoop=1;jettySize=auto;html=1;entryX=1;entryY=0.083;entryDx=0;entryDy=0;entryPerimeter=0;strokeColor=#000000;fontSize=14;fontColor=#999999;startArrow=none;startFill=0;endArrow=classic;endFill=1;" parent="1" source="_npgno4ClMqblgrAYMIO-3" target="9LRw7P8XOz3l5FExUCqB-1" edge="1">
          <mxGeometry relative="1" as="geometry">
            <Array as="points">
              <mxPoint x="540" y="140" />
              <mxPoint x="540" y="140" />
            </Array>
          </mxGeometry>
        </mxCell>
        <mxCell id="_npgno4ClMqblgrAYMIO-3" value="DP&lt;sub&gt;2&lt;/sub&gt;" style="rounded=0;whiteSpace=wrap;html=1;verticalAlign=top;align=center;" parent="1" vertex="1">
          <mxGeometry x="629" y="110" width="100" height="100" as="geometry" />
        </mxCell>
        <mxCell id="_npgno4ClMqblgrAYMIO-4" value="D&lt;sub&gt;2&lt;/sub&gt;" style="shape=cylinder3;whiteSpace=wrap;html=1;boundedLbl=1;backgroundOutline=1;size=7;" parent="1" vertex="1">
          <mxGeometry x="658" y="150" width="50" height="50" as="geometry" />
        </mxCell>
        <mxCell id="_npgno4ClMqblgrAYMIO-12" style="edgeStyle=orthogonalEdgeStyle;rounded=1;orthogonalLoop=1;jettySize=auto;html=1;entryX=0.25;entryY=1;entryDx=0;entryDy=0;fontSize=14;startArrow=none;startFill=0;endArrow=classic;endFill=1;exitX=1;exitY=0.25;exitDx=0;exitDy=0;" parent="1" source="_npgno4ClMqblgrAYMIO-5" target="_npgno4ClMqblgrAYMIO-1" edge="1">
          <mxGeometry relative="1" as="geometry" />
        </mxCell>
        <mxCell id="_npgno4ClMqblgrAYMIO-14" style="edgeStyle=orthogonalEdgeStyle;rounded=1;orthogonalLoop=1;jettySize=auto;html=1;entryX=0.25;entryY=1;entryDx=0;entryDy=0;fontSize=14;startArrow=none;startFill=0;endArrow=classic;endFill=1;" parent="1" target="_npgno4ClMqblgrAYMIO-3" edge="1">
          <mxGeometry relative="1" as="geometry">
            <mxPoint x="430" y="430" as="sourcePoint" />
          </mxGeometry>
        </mxCell>
        <mxCell id="_npgno4ClMqblgrAYMIO-20" style="edgeStyle=orthogonalEdgeStyle;rounded=1;orthogonalLoop=1;jettySize=auto;html=1;entryX=0.5;entryY=1;entryDx=0;entryDy=0;fontSize=14;startArrow=none;startFill=0;endArrow=classic;endFill=1;exitX=0;exitY=0.5;exitDx=0;exitDy=0;" parent="1" source="_npgno4ClMqblgrAYMIO-5" target="9LRw7P8XOz3l5FExUCqB-1" edge="1">
          <mxGeometry relative="1" as="geometry" />
        </mxCell>
        <mxCell id="_npgno4ClMqblgrAYMIO-5" value="Indexing Service&lt;br&gt;IX" style="rounded=0;whiteSpace=wrap;html=1;fontSize=14;align=center;verticalAlign=middle;" parent="1" vertex="1">
          <mxGeometry x="304" y="370" width="120" height="120" as="geometry" />
        </mxCell>
        <mxCell id="_npgno4ClMqblgrAYMIO-7" value="(X, Q)" style="text;html=1;strokeColor=none;fillColor=none;align=center;verticalAlign=middle;whiteSpace=wrap;rounded=0;fontSize=14;fontColor=#999999;" parent="1" vertex="1">
          <mxGeometry x="402" y="233" width="60" height="30" as="geometry" />
        </mxCell>
        <mxCell id="_npgno4ClMqblgrAYMIO-8" value="(X, I&lt;sub&gt;0&lt;/sub&gt;&lt;sup&gt;Q&lt;/sup&gt;)" style="text;html=1;strokeColor=none;fillColor=none;align=center;verticalAlign=middle;whiteSpace=wrap;rounded=0;fontSize=14;fontColor=#999999;" parent="1" vertex="1">
          <mxGeometry x="350" y="257" width="60" height="30" as="geometry" />
        </mxCell>
        <mxCell id="_npgno4ClMqblgrAYMIO-11" value="(X, DP&lt;sub&gt;1&lt;/sub&gt;, DP&lt;sub&gt;2&lt;/sub&gt;;&amp;nbsp; I&lt;sub&gt;0&lt;/sub&gt;&lt;sup&gt;Q&lt;/sup&gt;)" style="text;html=1;strokeColor=none;fillColor=none;align=left;verticalAlign=middle;whiteSpace=wrap;rounded=0;fontSize=14;" parent="1" vertex="1">
          <mxGeometry x="240" y="320" width="140" height="30" as="geometry" />
        </mxCell>
        <mxCell id="_npgno4ClMqblgrAYMIO-18" value="(X,&amp;nbsp; I&lt;sub&gt;0&lt;/sub&gt;&lt;sup&gt;Q&lt;/sup&gt;, I&lt;sub&gt;1&lt;/sub&gt;&lt;sup&gt;Q&lt;/sup&gt;&amp;nbsp;)" style="text;html=1;strokeColor=none;fillColor=none;align=center;verticalAlign=middle;whiteSpace=wrap;rounded=0;fontSize=14;" parent="1" vertex="1">
          <mxGeometry x="535" y="330" width="91" height="30" as="geometry" />
        </mxCell>
        <mxCell id="_npgno4ClMqblgrAYMIO-19" value="(X, I&lt;sub&gt;0&lt;/sub&gt;&lt;sup&gt;Q&lt;/sup&gt;, I&lt;sub&gt;2&lt;/sub&gt;&lt;sup&gt;Q&lt;/sup&gt;&amp;nbsp;)" style="text;html=1;strokeColor=none;fillColor=none;align=center;verticalAlign=middle;whiteSpace=wrap;rounded=0;fontSize=14;" parent="1" vertex="1">
          <mxGeometry x="697" y="220" width="100" height="30" as="geometry" />
        </mxCell>
        <mxCell id="_npgno4ClMqblgrAYMIO-21" value="(X, I&lt;sub&gt;X&lt;/sub&gt;&lt;sup&gt;Q&lt;/sup&gt;,&amp;nbsp;I&lt;sub&gt;1&lt;/sub&gt;&lt;sup&gt;Q&lt;/sup&gt;, I&lt;sub&gt;2&lt;/sub&gt;&lt;sup&gt;Q&lt;/sup&gt;&amp;nbsp;)" style="text;html=1;strokeColor=none;fillColor=none;align=center;verticalAlign=middle;whiteSpace=wrap;rounded=0;fontSize=14;" parent="1" vertex="1">
          <mxGeometry x="170" y="430" width="150" height="30" as="geometry" />
        </mxCell>
        <mxCell id="_npgno4ClMqblgrAYMIO-22" value="(X, I&lt;sub&gt;0&lt;/sub&gt;&lt;sup&gt;Q&lt;/sup&gt;)" style="text;html=1;strokeColor=none;fillColor=none;align=center;verticalAlign=middle;whiteSpace=wrap;rounded=0;fontSize=14;" parent="1" vertex="1">
          <mxGeometry x="424" y="370" width="60" height="30" as="geometry" />
        </mxCell>
        <mxCell id="_npgno4ClMqblgrAYMIO-23" value="(X, I&lt;sub&gt;0&lt;/sub&gt;&lt;sup&gt;Q&lt;/sup&gt;)" style="text;html=1;strokeColor=none;fillColor=none;align=center;verticalAlign=middle;whiteSpace=wrap;rounded=0;fontSize=14;" parent="1" vertex="1">
          <mxGeometry x="598" y="220" width="60" height="30" as="geometry" />
        </mxCell>
        <mxCell id="QR2V7HXA2Uwnx52Nd34d-1" value="(X,&amp;nbsp; I&lt;sub&gt;1&lt;/sub&gt;&lt;sup&gt;Q&lt;/sup&gt;, T&lt;sub&gt;1&lt;/sub&gt;&lt;sup&gt;Q&lt;/sup&gt;&amp;nbsp;)" style="text;html=1;strokeColor=none;fillColor=none;align=center;verticalAlign=middle;whiteSpace=wrap;rounded=0;fontSize=14;" parent="1" vertex="1">
          <mxGeometry x="386.5" y="160" width="91" height="30" as="geometry" />
        </mxCell>
        <mxCell id="QR2V7HXA2Uwnx52Nd34d-2" value="(X,&amp;nbsp; I&lt;sub&gt;2&lt;/sub&gt;&lt;sup&gt;Q&lt;/sup&gt;, T&lt;sub&gt;2&lt;/sub&gt;&lt;sup&gt;Q&lt;/sup&gt;&amp;nbsp;)" style="text;html=1;strokeColor=none;fillColor=none;align=center;verticalAlign=middle;whiteSpace=wrap;rounded=0;fontSize=14;" parent="1" vertex="1">
          <mxGeometry x="477.5" y="110" width="91" height="30" as="geometry" />
        </mxCell>
        <mxCell id="W2bgth2EgCwQeWnGfcht-2" value="DC&lt;sub&gt;1&lt;/sub&gt;" style="shape=umlActor;verticalLabelPosition=bottom;verticalAlign=top;html=1;outlineConnect=0;" parent="1" vertex="1">
          <mxGeometry x="565.5" y="220" width="30" height="60" as="geometry" />
        </mxCell>
        <mxCell id="W2bgth2EgCwQeWnGfcht-3" style="edgeStyle=orthogonalEdgeStyle;rounded=1;orthogonalLoop=1;jettySize=auto;html=1;dashed=1;strokeColor=#000000;fontSize=14;fontColor=#999999;startArrow=none;startFill=0;endArrow=none;endFill=0;entryX=1;entryY=0.5;entryDx=0;entryDy=0;entryPerimeter=0;exitX=0.5;exitY=0.5;exitDx=0;exitDy=0;exitPerimeter=0;" parent="1" source="W2bgth2EgCwQeWnGfcht-4" target="_npgno4ClMqblgrAYMIO-4" edge="1">
          <mxGeometry relative="1" as="geometry">
            <mxPoint x="752" y="610" as="targetPoint" />
            <Array as="points">
              <mxPoint x="720" y="140" />
              <mxPoint x="720" y="175" />
            </Array>
          </mxGeometry>
        </mxCell>
        <mxCell id="W2bgth2EgCwQeWnGfcht-4" value="DC&lt;sub&gt;2&lt;/sub&gt;" style="shape=umlActor;verticalLabelPosition=bottom;verticalAlign=top;html=1;outlineConnect=0;" parent="1" vertex="1">
          <mxGeometry x="737" y="110" width="30" height="60" as="geometry" />
        </mxCell>
        <mxCell id="W2bgth2EgCwQeWnGfcht-5" style="edgeStyle=orthogonalEdgeStyle;rounded=1;orthogonalLoop=1;jettySize=auto;html=1;entryX=0.5;entryY=0;entryDx=0;entryDy=0;entryPerimeter=0;strokeColor=#000000;fontSize=14;fontColor=#999999;startArrow=none;startFill=0;endArrow=none;endFill=0;exitX=0.5;exitY=0.5;exitDx=0;exitDy=0;exitPerimeter=0;dashed=1;" parent="1" source="W2bgth2EgCwQeWnGfcht-6" target="W2bgth2EgCwQeWnGfcht-2" edge="1">
          <mxGeometry relative="1" as="geometry">
            <Array as="points">
              <mxPoint x="581" y="50" />
            </Array>
          </mxGeometry>
        </mxCell>
        <mxCell id="W2bgth2EgCwQeWnGfcht-6" value="P" style="shape=umlActor;verticalLabelPosition=bottom;verticalAlign=top;html=1;outlineConnect=0;" parent="1" vertex="1">
          <mxGeometry x="767" y="20" width="30" height="60" as="geometry" />
        </mxCell>
        <mxCell id="W2bgth2EgCwQeWnGfcht-7" style="edgeStyle=orthogonalEdgeStyle;rounded=1;orthogonalLoop=1;jettySize=auto;html=1;entryX=0.5;entryY=0;entryDx=0;entryDy=0;entryPerimeter=0;strokeColor=#000000;fontSize=14;fontColor=#999999;startArrow=none;startFill=0;endArrow=none;endFill=0;exitX=0.5;exitY=0.5;exitDx=0;exitDy=0;exitPerimeter=0;dashed=1;" parent="1" source="W2bgth2EgCwQeWnGfcht-6" target="W2bgth2EgCwQeWnGfcht-4" edge="1">
          <mxGeometry relative="1" as="geometry">
            <mxPoint x="156" y="390" as="sourcePoint" />
            <mxPoint x="86" y="340" as="targetPoint" />
            <Array as="points">
              <mxPoint x="752" y="50" />
            </Array>
          </mxGeometry>
        </mxCell>
      </root>
    </mxGraphModel>
  </diagram>
</mxfile>
